# xmcd
#
# Track frame offsets:
#	150
#	20972
#	38222
#	54347
#	72197
#	90650
#	109397
#	124100
# Disc length: 1973 seconds
# Revision: 2
# Processed by: cddbd v1.5.1PL2 Copyright (c) Steve Scherf et al.
#
# Submitted via: libkcddb 0.21
#
DISCID=6d07b308
DTITLE=Various Artist - Blues and Boogie Explosion
DYEAR=1981
DGENRE=Blues
TTITLE0=Bob Hall and George Green - The Fish
TTITLE1=Ian Steward and George Green - Chicken Shack Boogie
TTITLE2=Bob Hall and Ian Steward - KC Jump
TTITLE3=Bob Hall and Ian Steward - Night Train
TTITLE4=Bob Hall and George Green - All Night Long
TTITLE5=Bob Hall and George Green - I Need You
TTITLE6=Bob Hall and Ian Steward - The Rainmaker
TTITLE7=Bob Hall and George Green - Old Bill
EXTD=
EXTT0=
EXTT1=
EXTT2=
EXTT3=
EXTT4=
EXTT5=
EXTT6=
EXTT7=
PLAYORDER=
